<?xml version="1.0" encoding="UTF-8"?>
<svg width="15px" height="17px" viewBox="0 0 15 17" version="1.1" xmlns="http://www.w3.org/2000/svg" xmlns:xlink="http://www.w3.org/1999/xlink">
    <!-- Generator: Sketch 56.2 (81672) - https://sketch.com -->
    <title>Group 3</title>
    <desc>Created with Sketch.</desc>
    <defs>
        <polygon id="path-1" points="0 0 15 0 15 17 0 17"></polygon>
    </defs>
    <g id="Batch-2" stroke="none" stroke-width="1" fill="none" fill-rule="evenodd">
        <g id="Order-History---Tablet" transform="translate(-503.000000, -115.000000)">
            <g id="Group" transform="translate(503.000000, 115.000000)">
                <g id="Group-3">
                    <mask id="mask-2" fill="white">
                        <use xlink:href="#path-1"></use>
                    </mask>
                    <g id="Clip-2"></g>
                    <path d="M5.25,12.9360334 L5.25,14.4138395 C5.25,14.5438864 5.319375,14.6643276 5.4315,14.7304594 L9.1815,16.9471684 C9.2415,16.9822663 9.30825,17 9.375,17 C9.43875,17 9.502125,16.9837441 9.5595,16.9516019 C9.677625,16.8858395 9.75,16.763551 9.75,16.6305485 L9.75,12.9360334 L5.25,12.9360334 Z M0.375,5.54700332 C0.167625,5.54700332 0,5.71214814 0,5.91645483 L0,7.02480934 C0,7.12308344 0.039375,7.21692413 0.109875,7.28601156 L5.25,12.1971304 L9.75,12.1971304 L14.890125,7.28601156 C14.961,7.21692413 15,7.12308344 15,7.02480934 L15,5.91645483 C15,5.71214814 14.832375,5.54700332 14.625,5.54700332 L0.375,5.54700332 Z M10.869,5.84131921e-05 C10.662375,0.00338347674 10.497,0.170745009 10.5,0.37468224 L10.5,3.54679287 L9.265125,2.33018906 C9.194625,2.25888492 9.0975,2.21824525 8.99625,2.21824525 C8.78925,2.21824525 8.62125,2.38375953 8.62125,2.58806621 C8.62125,2.68744867 8.6625,2.78313661 8.734875,2.85259349 L10.576875,4.66733929 C10.7025,4.8295285 10.938,4.86093187 11.10225,4.73716562 C11.129625,4.71684579 11.15325,4.69320089 11.173875,4.66660038 L13.015125,2.85259349 C13.164375,2.71146301 13.16925,2.47723076 13.025625,2.33018906 C12.88275,2.18314736 12.645,2.17834449 12.495375,2.31947497 C12.492,2.32280003 12.488625,2.32649455 12.484875,2.33018906 L11.25,3.54679287 L11.25,0.37468224 C11.253,0.170745009 11.08725,0.00301402524 10.88025,5.84131921e-05 L10.869,5.84131921e-05 Z M4.119,2.86191349e-05 C4.003875,0.00190567058 3.895875,0.0562150419 3.826125,0.146730661 L1.984875,1.96073755 C1.835625,2.10186803 1.83075,2.33610028 1.974,2.48314198 C2.117625,2.63018368 2.355,2.63498655 2.50425,2.49385608 C2.508,2.49053101 2.51175,2.4868365 2.515125,2.48314198 L3.75,1.26653817 L3.75,4.4386488 C3.747,4.64258603 3.91275,4.81031702 4.11975,4.81331221 C4.32675,4.81622824 4.497,4.65330013 4.5,4.44899345 L4.5,4.4386488 L4.5,1.26653817 L5.734875,2.48314198 C5.878125,2.63018368 6.115875,2.63498655 6.265125,2.49385608 C6.414375,2.35235615 6.41925,2.11849335 6.276,1.97145165 C6.272625,1.96775713 6.268875,1.96406262 6.265125,1.96073755 L4.421625,0.144513952 C4.349625,0.0521510754 4.2375,-0.00141939297 4.119,2.86191349e-05 L4.119,2.86191349e-05 Z" id="Fill-1" fill="#0069AA" mask="url(#mask-2)"></path>
                </g>
            </g>
        </g>
    </g>
</svg>